<svg xmlns="http://www.w3.org/2000/svg" width="111" height="34" viewBox="0 0 111 34" fill="none">
<path d="M29.7082 9.90909H32.6102L36.4965 19.3949H36.6499L40.5363 9.90909H43.4383V23H41.1627V14.0064H41.0413L37.4234 22.9616H35.7231L32.1052 13.9872H31.9838V23H29.7082V9.90909ZM48.3837 23.1982C47.7615 23.1982 47.2012 23.0874 46.7026 22.8658C46.2083 22.6399 45.8162 22.3075 45.5265 21.8686C45.2409 21.4297 45.0982 20.8885 45.0982 20.245C45.0982 19.6911 45.2005 19.233 45.405 18.8707C45.6095 18.5085 45.8887 18.2188 46.2424 18.0014C46.5961 17.7841 46.9945 17.62 47.4377 17.5092C47.8851 17.3942 48.3475 17.3111 48.8247 17.2599C49.4 17.2003 49.8667 17.147 50.2246 17.1001C50.5826 17.049 50.8425 16.9723 51.0044 16.87C51.1706 16.7635 51.2537 16.5994 51.2537 16.3778V16.3395C51.2537 15.858 51.111 15.4851 50.8255 15.2209C50.5399 14.9567 50.1287 14.8246 49.5918 14.8246C49.025 14.8246 48.5755 14.9482 48.2431 15.1953C47.9149 15.4425 47.6934 15.7344 47.5783 16.071L45.4178 15.7642C45.5882 15.1676 45.8695 14.669 46.2615 14.2685C46.6536 13.8636 47.133 13.5611 47.6997 13.3608C48.2665 13.1562 48.8929 13.054 49.579 13.054C50.052 13.054 50.5229 13.1094 50.9917 13.2202C51.4604 13.331 51.8887 13.5142 52.2765 13.7699C52.6642 14.0213 52.9753 14.3643 53.2097 14.799C53.4483 15.2337 53.5676 15.777 53.5676 16.429V23H51.3432V21.6513H51.2665C51.1259 21.924 50.9277 22.1797 50.672 22.4183C50.4206 22.6527 50.1032 22.8423 49.7196 22.9872C49.3404 23.1278 48.8951 23.1982 48.3837 23.1982ZM48.9845 21.4979C49.449 21.4979 49.8517 21.4062 50.1926 21.223C50.5336 21.0355 50.7956 20.7884 50.9789 20.4815C51.1664 20.1747 51.2601 19.8402 51.2601 19.478V18.321C51.1877 18.3807 51.0641 18.4361 50.8894 18.4872C50.7189 18.5384 50.5272 18.5831 50.3141 18.6214C50.101 18.6598 49.8901 18.6939 49.6813 18.7237C49.4725 18.7536 49.2914 18.7791 49.138 18.8004C48.7928 18.8473 48.4838 18.924 48.2111 19.0305C47.9384 19.1371 47.7232 19.2862 47.5655 19.478C47.4078 19.6655 47.329 19.9084 47.329 20.2067C47.329 20.6328 47.4845 20.9545 47.7956 21.1719C48.1067 21.3892 48.503 21.4979 48.9845 21.4979ZM55.5344 23V13.1818H57.8483V23H55.5344ZM56.6977 11.7884C56.3312 11.7884 56.0159 11.6669 55.7517 11.424C55.4875 11.1768 55.3554 10.8807 55.3554 10.5355C55.3554 10.1861 55.4875 9.88991 55.7517 9.64702C56.0159 9.39986 56.3312 9.27628 56.6977 9.27628C57.0684 9.27628 57.3838 9.39986 57.6437 9.64702C57.9079 9.88991 58.04 10.1861 58.04 10.5355C58.04 10.8807 57.9079 11.1768 57.6437 11.424C57.3838 11.6669 57.0684 11.7884 56.6977 11.7884ZM62.1816 9.90909V23H59.8677V9.90909H62.1816ZM68.4082 9.90909H71.3102L75.1965 19.3949H75.3499L79.2363 9.90909H82.1383V23H79.8627V14.0064H79.7413L76.1234 22.9616H74.4231L70.8052 13.9872H70.6838V23H68.4082V9.90909ZM84.2584 23V13.1818H86.5723V23H84.2584ZM85.4218 11.7884C85.0553 11.7884 84.7399 11.6669 84.4757 11.424C84.2115 11.1768 84.0794 10.8807 84.0794 10.5355C84.0794 10.1861 84.2115 9.88991 84.4757 9.64702C84.7399 9.39986 85.0553 9.27628 85.4218 9.27628C85.7925 9.27628 86.1078 9.39986 86.3678 9.64702C86.632 9.88991 86.7641 10.1861 86.7641 10.5355C86.7641 10.8807 86.632 11.1768 86.3678 11.424C86.1078 11.6669 85.7925 11.7884 85.4218 11.7884ZM90.9057 17.2472V23H88.5918V13.1818H90.8034V14.8501H90.9185C91.1443 14.3004 91.5044 13.8636 91.9987 13.5398C92.4973 13.2159 93.1131 13.054 93.846 13.054C94.5236 13.054 95.1138 13.1989 95.6166 13.4886C96.1237 13.7784 96.5158 14.1982 96.7928 14.7479C97.074 15.2976 97.2125 15.9645 97.2082 16.7486V23H94.8943V17.1065C94.8943 16.4503 94.7239 15.9368 94.383 15.5661C94.0463 15.1953 93.5797 15.0099 92.9831 15.0099C92.5783 15.0099 92.2182 15.0994 91.9029 15.2784C91.5918 15.4531 91.3467 15.7067 91.1678 16.0391C90.9931 16.3714 90.9057 16.7741 90.9057 17.2472ZM104.103 13.1818V14.9716H98.459V13.1818H104.103ZM99.8525 10.8295H102.166V20.0469C102.166 20.358 102.213 20.5966 102.307 20.7628C102.405 20.9247 102.533 21.0355 102.691 21.0952C102.848 21.1548 103.023 21.1847 103.215 21.1847C103.36 21.1847 103.492 21.174 103.611 21.1527C103.735 21.1314 103.828 21.1122 103.892 21.0952L104.282 22.9041C104.159 22.9467 103.982 22.9936 103.752 23.0447C103.526 23.0959 103.249 23.1257 102.921 23.1342C102.341 23.1513 101.819 23.0639 101.355 22.8722C100.89 22.6761 100.522 22.3736 100.249 21.9645C99.9804 21.5554 99.8483 21.044 99.8525 20.4304V10.8295Z" fill="#573BFF"/>
<path d="M18.5439 14.3502L17.8805 23.5424L18.8281 22.2157L19.8706 11.5073L10.2046 17.9513L8.02498 15.6769L1.77051 10.3701L9.73074 19.657C10.015 19.9413 10.3941 20.0361 10.7732 19.7518L18.5439 14.3502Z" fill="#573BFF"/>
<path d="M16.1744 10.9385C12.0996 11.7914 8.59327 11.8861 7.36133 11.7914L8.40374 12.9285C13.142 12.6442 15.4163 11.9809 15.9849 11.6018C16.364 11.3175 16.2692 11.0332 16.1744 10.9385Z" fill="#02C4FB"/>
<path d="M14.6565 13.0234C12.0979 13.7816 9.91827 13.9711 9.16016 13.9711L9.91827 14.6344C12.856 14.2554 14.2774 13.6868 14.5617 13.4025C14.846 13.213 14.7513 13.0234 14.6565 13.0234Z" fill="#573BFF"/>
<path d="M20.4949 10.6517C20.2726 10.6172 20.0573 10.7194 19.8701 10.8441L10.3936 17.2881L6.03447 12.5499L5.25011 11.7189L4.42347 10.8441C6.224 11.0337 13.6156 10.7494 17.6905 9.80172C19.5858 9.3279 19.2068 8.47502 19.0172 8.56978C10.2041 9.80172 2.52818 9.04361 2.52818 9.04361C2.1065 9.00817 1.88218 9.11234 1.6753 9.42266C1.48577 9.70696 1.58053 10.086 1.77006 10.3703L2.24389 10.8441L4.42347 13.0237L9.82506 18.7096C10.1093 18.9939 10.4884 18.9939 10.8675 18.8044L19.3015 13.0237C18.8277 17.2881 18.2591 21.5525 17.9748 22.5949C16.0795 22.974 4.99206 23.0688 3.47583 22.6897C3.002 21.9316 2.43342 18.2358 2.05436 14.3504C1.95959 13.7818 1.39101 13.4028 0.822418 13.6871C0.822418 13.6871 0.443359 13.8722 0.443359 14.4452C1.39101 23.4478 2.33865 23.9216 2.62295 24.1112C3.19153 24.3955 6.98212 24.585 10.8675 24.585C14.7528 24.585 18.5434 24.3955 19.112 23.9216C19.3015 23.7321 19.9649 23.1635 21.102 11.9813V11.8865C21.1791 11.1158 20.9427 10.7211 20.4949 10.6517Z" fill="#573BFF"/>
<path d="M2.19629 10.8535H4.43257L6.19842 12.7281H3.77741L2.19629 10.8535Z" fill="url(#paint0_linear_1627_940)"/>
<defs>
<linearGradient id="paint0_linear_1627_940" x1="3.3893" y1="10.8535" x2="4.47948" y2="12.7726" gradientUnits="userSpaceOnUse">
<stop stop-color="#0C0632"/>
<stop offset="1" stop-color="#573BFF"/>
</linearGradient>
</defs>
<script xmlns=""/></svg>